#!OML:ASF F:\VICON\USERDATA\INSTALL\rory3\rory3.ASF
:FULLY-SPECIFIED
:DEGREES
117
root 4.19564 17.56 3.06936 17.8708 -20.0441 -4.34957
lowerback -5.274 4.41201 3.87127
upperback -10.1101 5.83156 -0.19579
thorax -7.2644 2.59503 -2.39553
lowerneck -9.89216 8.10704 5.26543
upperneck 33.2703 9.47874 3.63826
head 12.8098 5.31985 1.79844
rclavicle 1.51076e-014 1.58034e-014
rhumerus 15.7513 -19.9852 -5.29023
rradius 117.901
rwrist -56.5425
rhand -7.34775 -45.9754
rfingers 7.12502
rthumb 18.5363 -75.1122
lclavicle 1.51076e-014 1.58034e-014
lhumerus 27.6471 28.6787 -9.39776
lradius 46.0838
lwrist 42.9555
lhand -29.0993 -26.4402
lfingers 7.12502
lthumb -2.44759 3.52551
rfemur -11.9122 -0.745625 -0.866281
rtibia 16.2829
rfoot -28.8261 -28.137
rtoes 48.8808
lfemur -25.4891 1.39548 -24.5896
ltibia 24.3181
lfoot -14.0732 12.9232
ltoes 12.6263
118
root 4.20269 17.5601 3.06344 17.8214 -20.0455 -4.49901
lowerback -5.20766 4.46154 4.00396
upperback -10.0117 5.89912 -0.197794
thorax -7.17738 2.62314 -2.47017
lowerneck -9.8963 7.96521 5.25256
upperneck 33.3034 9.31802 3.49764
head 12.8306 5.22815 1.72644
rclavicle -1.10325e-014 -6.55989e-015
rhumerus 15.7081 -19.9415 -5.36129
rradius 117.992
rwrist -56.4918
rhand -7.96757 -46.1089
rfingers 7.12502
rthumb 17.94 -75.3014
lclavicle -1.10325e-014 -6.55989e-015
lhumerus 27.6156 28.5739 -9.36748
lradius 46.6317
lwrist 43.6968
lhand -28.5522 -26.7109
lfingers 7.12502
lthumb -1.91922 3.26019
rfemur -11.9506 -0.872859 -0.652769
rtibia 16.4091
rfoot -29.4142 -27.5314
rtoes 49.4408
lfemur -25.4706 1.41523 -24.4409
ltibia 24.4178
lfoot -14.1113 12.937
ltoes 12.756
119
root 4.21098 17.5562 3.05776 17.7698 -20.0684 -4.54585
lowerback -5.17458 4.47296 3.98227
upperback -9.97238 5.91798 -0.152426
thorax -7.15852 2.63713 -2.4118
lowerneck -9.874 7.79769 5.17167
upperneck 33.4063 9.17832 3.23679
head 12.8771 5.1221 1.62421
rclavicle 3.70236e-014 5.26779e-015
rhumerus 15.8814 -19.8566 -5.53395
rradius 117.953
rwrist -56.3066
rhand -7.82462 -45.9392
rfingers 7.12502
rthumb 18.0776 -75.1191
lclavicle 3.70236e-014 5.26779e-015
lhumerus 27.5972 28.4895 -9.16682
lradius 47.0699
lwrist 43.8527
lhand -28.6243 -26.7963
lfingers 7.12502
lthumb -1.98889 3.1742
rfemur -11.9453 -1.01845 -0.596002
rtibia 16.5456
rfoot -31.7057 -24.5716
rtoes 51.2881
lfemur -25.4993 1.4141 -24.4078
ltibia 24.5448
lfoot -14.1023 12.9518
ltoes 12.749
120
root 4.22009 17.5507 3.0585 17.733 -20.0603 -4.46349
lowerback -5.24058 4.4227 3.88136
upperback -9.95874 5.84715 -0.14469
thorax -7.1201 2.61054 -2.3426
lowerneck -9.83403 7.68791 5.09368
upperneck 33.5658 9.0975 3.05655
head 12.9401 5.05243 1.56153
rclavicle -1.67725e-014 1.55052e-014
rhumerus 16.163 -19.8288 -5.80372
rradius 117.914
rwrist -56.1862
rhand -6.91685 -45.8985
rfingers 7.12502
rthumb 18.9508 -74.9953
lclavicle -1.67725e-014 1.55052e-014
lhumerus 27.4429 28.3944 -9.1322
lradius 47.5735
lwrist 43.9627
lhand -29.3889 -26.5277
lfingers 7.12502
lthumb -2.72725 3.43463
rfemur -12.1895 -1.66382 -0.566679
rtibia 16.7881
rfoot -29.6806 -26.7692
rtoes 49.9641
lfemur -25.5414 1.39944 -24.5272
ltibia 24.64
lfoot -14.0824 12.9196
ltoes 12.5493
121
root 4.22923 17.5437 3.05634 17.6875 -20.1046 -4.32362
lowerback -5.27906 4.40946 3.7874
upperback -9.98467 5.82366 -0.228541
thorax -7.12743 2.60147 -2.37676
lowerneck -9.50261 7.60581 5.01319
upperneck 33.6046 9.00816 3.07335
head 12.8786 5.00701 1.55198
rclavicle 2.36057e-015 3.18055e-015
rhumerus 16.2508 -19.6423 -5.97374
rradius 117.944
rwrist -56.1546
rhand -6.94405 -45.9637
rfingers 7.12502
rthumb 18.9246 -75.0631
lclavicle 2.36057e-015 3.18055e-015
lhumerus 27.1661 28.1093 -9.46587
lradius 48.2023
lwrist 44.6025
lhand -30.0602 -26.5444
lfingers 7.12502
lthumb -3.37563 3.40863
rfemur -12.3708 -2.03494 -0.689297
rtibia 17.1334
rfoot -31.2537 -24.7212
rtoes 51.256
lfemur -25.5725 1.29382 -24.6838
ltibia 24.6965
lfoot -14.093 13.0197
ltoes 12.432
122
root 4.23866 17.5389 3.04733 17.6951 -20.2909 -4.15645
lowerback -5.25796 4.43189 3.62686
upperback -10.017 5.85086 -0.327991
thorax -7.17684 2.62057 -2.39604
lowerneck -9.30359 7.49056 4.83011
upperneck 33.6718 8.84469 3.20881
head 12.843 4.93005 1.60181
rclavicle 1.29707e-014 -9.74045e-015
rhumerus 16.3153 -19.4092 -6.19713
rradius 117.976
rwrist -56.1273
rhand -7.37928 -45.954
rfingers 7.12502
rthumb 18.506 -75.0938
lclavicle 1.29707e-014 -9.74045e-015
lhumerus 27.1203 28.1584 -9.4237
lradius 48.6663
lwrist 44.9142
lhand -30.2835 -27.231
lfingers 7.12502
lthumb -3.59122 2.71846
rfemur -12.7391 -2.23006 -0.873489
rtibia 17.4709
rfoot -32.438 -23.2837
rtoes 51.9421
lfemur -25.7102 1.25921 -24.8936
ltibia 24.7815
lfoot -14.1404 13.183
ltoes 12.254
123
root 4.24872 17.5364 3.03947 17.7502 -20.4233 -4.12175
lowerback -5.15883 4.41701 3.5766
upperback -10.0228 5.83453 -0.358358
thorax -7.24197 2.61267 -2.40907
lowerneck -9.5401 7.33606 4.64015
upperneck 33.877 8.63274 3.24626
head 12.9637 4.81394 1.63781
rclavicle 3.598e-014 9.64106e-015
rhumerus 16.5886 -19.3274 -6.64747
rradius 117.967
rwrist -56.0497
rhand -7.38967 -46.0811
rfingers 7.12502
rthumb 18.496 -75.2218
lclavicle 3.598e-014 9.64106e-015
lhumerus 27.3085 28.5579 -8.89718
lradius 48.9935
lwrist 44.751
lhand -30.3372 -28.0932
lfingers 7.12502
lthumb -3.64309 1.85544
rfemur -13.1876 -2.6144 -0.851925
rtibia 17.7942
rfoot -31.6913 -24.385
rtoes 51.3233
lfemur -25.8816 1.37995 -25.0056
ltibia 24.9006
lfoot -14.1758 13.1756
ltoes 11.964
124
root 4.25897 17.5321 3.03499 17.7764 -20.3755 -4.37036
lowerback -4.92522 4.38948 3.80889
upperback -9.95163 5.81068 -0.312026
thorax -7.28288 2.58553 -2.5038
lowerneck -10.0117 7.19862 4.50134
upperneck 34.0818 8.46733 3.15404
head 13.1468 4.7062 1.63429
rclavicle 7.93896e-015 3.57812e-015
rhumerus 16.8909 -19.5611 -7.08013
rradius 117.994
rwrist -56.0914
rhand -6.85429 -46.3785
rfingers 7.12502
rthumb 19.011 -75.4694
lclavicle 7.93896e-015 3.57812e-015
lhumerus 27.5637 28.9904 -8.38245
lradius 49.2912
lwrist 44.6894
lhand -30.3335 -28.5297
lfingers 7.12502
lthumb -3.63951 1.41892
rfemur -13.3998 -3.0623 -0.497224
rtibia 18.1055
rfoot -30.5015 -25.6596
rtoes 50.3422
lfemur -25.9305 1.4672 -24.7907
ltibia 25.0402
lfoot -14.1808 13.1048
ltoes 11.9796
125
root 4.27074 17.5234 3.03301 17.7681 -20.2837 -4.37703
lowerback -4.83879 4.34312 3.83501
upperback -9.90311 5.75194 -0.322586
thorax -7.27922 2.55472 -2.53382
lowerneck -10.2819 7.09703 4.42313
upperneck 34.2714 8.34213 3.09382
head 13.2842 4.62968 1.62748
rclavicle 1.94312e-014 1.73937e-014
rhumerus 17.0722 -19.6825 -7.32541
rradius 118.027
rwrist -56.0873
rhand -5.90794 -46.5888
rfingers 7.12502
rthumb 19.9208 -75.5878
lclavicle 1.94312e-014 1.73937e-014
lhumerus 27.8265 29.3018 -7.91792
lradius 49.5795
lwrist 44.9271
lhand -30.6368 -29.0054
lfingers 7.12502
lthumb -3.93238 0.938083
rfemur -13.5109 -3.72914 -0.427761
rtibia 18.3504
rfoot -30.2096 -25.6324
rtoes 50.1748
lfemur -26.0103 1.35929 -24.8067
ltibia 25.2089
lfoot -14.1877 13.1412
ltoes 12.019
126
root 4.27508 17.5206 3.03522 17.7732 -20.5812 -4.48138
lowerback -4.87675 4.40749 3.74031
upperback -9.90038 5.83866 -0.262414
thorax -7.26359 2.60756 -2.41608
lowerneck -10.2908 6.9573 4.37296
upperneck 34.5248 8.1615 3.04912
head 13.3948 4.53597 1.6034
rclavicle -2.10836e-014 -4.37326e-015
rhumerus 17.2502 -19.4163 -7.52453
rradius 118.004
rwrist -55.9367
rhand -5.43987 -46.7415
rfingers 7.12502
rthumb 20.3707 -75.6931
lclavicle -2.10836e-014 -4.37326e-015
lhumerus 27.8013 29.2622 -7.74639
lradius 50.041
lwrist 45.4903
lhand -30.772 -28.9861
lfingers 7.12502
lthumb -4.06298 0.954875
rfemur -13.7531 -3.63679 -0.347782
rtibia 18.5444
rfoot -31.6668 -23.9722
rtoes 51.3622
lfemur -26.0795 1.45013 -24.7448
ltibia 25.3956
lfoot -14.2653 13.3733
ltoes 12.1027
127
root 4.28282 17.5178 3.03693 17.7774 -20.7132 -4.54399
lowerback -4.90561 4.43371 3.69919
upperback -9.9302 5.87457 -0.222505
thorax -7.28569 2.6289 -2.35123
lowerneck -10.093 6.79522 4.28498
upperneck 34.6826 7.98117 2.96276
head 13.4187 4.43409 1.55491
rclavicle -2.18415e-014 -3.20043e-014
rhumerus 17.3636 -19.1132 -7.69703
rradius 117.989
rwrist -55.9406
rhand -5.60936 -46.8066
rfingers 7.12502
rthumb 20.2078 -75.7755
lclavicle -2.18415e-014 -3.20043e-014
lhumerus 27.7048 29.1503 -7.65191
lradius 50.5667
lwrist 45.8781
lhand -29.9878 -28.0529
lfingers 7.12502
lthumb -3.30569 1.9012
rfemur -13.9897 -3.91109 -0.251358
rtibia 18.8163
rfoot -31.8912 -23.7512
rtoes 51.7381
lfemur -26.1248 1.52305 -24.7402
ltibia 25.5307
lfoot -14.3817 13.4557
ltoes 11.9448
